<?xml version="1.0" standalone="no"?>
<!DOCTYPE svg PUBLIC "-//W3C//DTD SVG 20010904//EN"
 "http://www.w3.org/TR/2001/REC-SVG-20010904/DTD/svg10.dtd">
<svg version="1.0" xmlns="http://www.w3.org/2000/svg"
 width="192.000000pt" height="192.000000pt" viewBox="0 0 192.000000 192.000000"
 preserveAspectRatio="xMidYMid meet">
<metadata>
Created by potrace 1.11, written by Peter Selinger 2001-2013
</metadata>
<g transform="translate(0.000000,192.000000) scale(0.100000,-0.100000)"
fill="#000000" stroke="none">
<path d="M0 960 l0 -960 960 0 960 0 0 960 0 960 -960 0 -960 0 0 -960z m1063
518 c14 -18 34 -52 46 -75 12 -24 35 -53 52 -65 17 -13 43 -43 57 -68 14 -25
34 -51 43 -58 10 -7 27 -38 39 -70 24 -63 74 -133 168 -233 70 -75 169 -131
262 -149 65 -12 80 -24 80 -62 0 -29 -38 -78 -60 -78 -18 0 -162 61 -200 85
-82 51 -222 216 -271 318 -39 81 -88 153 -137 202 -22 22 -54 68 -71 103 -39
78 -58 81 -96 11 -16 -30 -45 -64 -70 -81 -26 -18 -55 -53 -76 -90 -19 -33
-42 -64 -52 -70 -31 -16 -65 0 -97 47 -17 25 -33 45 -35 45 -2 0 -28 -51 -58
-112 -73 -154 -211 -343 -339 -464 -68 -65 -162 -110 -116 -57 100 118 268
325 313 388 32 44 84 134 115 200 75 158 92 170 135 104 42 -64 61 -57 128 46
17 27 47 60 66 72 19 13 45 42 59 66 49 87 76 97 115 45z m-430 -485 c-11 -32
-111 -192 -170 -276 -57 -80 -234 -267 -253 -267 -21 0 -7 23 76 117 117 133
243 291 299 374 47 70 60 84 48 52z m22 -145 c-21 -57 -62 -153 -91 -215 -29
-62 -48 -113 -42 -113 21 0 86 79 147 179 33 56 70 111 81 123 l20 22 0 -30
c0 -16 -7 -50 -15 -76 -17 -57 -7 -62 20 -12 27 50 50 61 69 31 9 -12 21 -37
27 -55 15 -44 36 -41 89 14 47 48 93 78 104 67 36 -36 -78 -221 -147 -239 -39
-9 -64 17 -77 82 -6 30 -14 54 -18 54 -4 0 -23 -25 -42 -55 -78 -123 -122 -59
-60 87 48 112 34 103 -25 -17 -65 -135 -135 -217 -212 -251 -30 -13 -58 -24
-63 -24 -21 0 -9 39 28 91 107 153 163 257 216 402 10 27 20 46 23 43 3 -3
-11 -51 -32 -108z"/>
</g>
</svg>
